<svg xmlns="http://www.w3.org/2000/svg" id="Layer_2" data-name="Layer 2" width="5690.27" height="2999.35" viewBox="0 0 5690.27 2999.35"><defs><style>      .cls-1 {        fill: #f0f0f0;      }      .cls-2 {        fill: #f0f0f2;      }      .cls-3 {        fill: #e86642;      }      .cls-4 {        fill: #fff;      }      .cls-5 {        fill: #85aa6e;      }      .cls-6, .cls-7 {        fill: #32393f;      }      .cls-8 {        fill: #8592a2;      }      .cls-9 {        fill: #d2e1ce;      }      .cls-10, .cls-11 {        fill: #bbc1cb;      }      .cls-12 {        fill: #d40e39;      }      .cls-13 {        fill: #6d7e8d;      }      .cls-14 {        fill: #9ac57d;      }      .cls-15, .cls-16, .cls-17 {        fill: #535e6a;      }      .cls-18 {        fill: #2d5286;      }      .cls-19 {        fill: #83ac67;      }      .cls-16 {        stroke-width: 16.63px;      }      .cls-16, .cls-17 {        stroke: #545e6a;      }      .cls-16, .cls-17, .cls-7 {        stroke-miterlimit: 10;      }      .cls-17 {        stroke-width: 9px;      }      .cls-7 {        stroke: #32393f;        stroke-width: 17.41px;      }      .cls-11 {        opacity: .2;      }    </style></defs><g id="Vrstva_1" data-name="Vrstva 1"><rect class="cls-13" x=".5" width="5689.77" height="2999.35"></rect><rect class="cls-5" x="1351.79" y="990.66" width="324.86" height="430.41" rx="131.59" ry="131.59"></rect><rect class="cls-15" x=".5" y="2546.45" width="5689.77" height="452.9"></rect><rect class="cls-10" x=".5" width="5689.77" height="212.95"></rect><rect class="cls-8" x=".5" y="2218.02" width="206.93" height="107.98" transform="translate(207.93 4544.02) rotate(180)"></rect><rect class="cls-8" x="70.52" y="2092.05" width="294.89" height="107.98" transform="translate(435.93 4292.07) rotate(180)"></rect><rect class="cls-8" x=".5" y="2092.05" width="48.96" height="107.98" transform="translate(49.96 4292.07) rotate(180)"></rect><rect class="cls-8" x=".5" y="1966.07" width="206.93" height="107.98" transform="translate(207.93 4040.13) rotate(180)"></rect><rect class="cls-8" x="228.5" y="1966.07" width="294.89" height="107.98" transform="translate(751.89 4040.13) rotate(180)"></rect><rect class="cls-8" y="1714.13" width="207.43" height="107.98" transform="translate(207.43 3536.23) rotate(180)"></rect><rect class="cls-8" x="70.52" y="1840.1" width="294.89" height="107.98" transform="translate(435.93 3788.18) rotate(180)"></rect><rect class="cls-8" x=".5" y="1840.1" width="48.96" height="107.98" transform="translate(49.96 3788.18) rotate(180)"></rect><rect class="cls-8" x="5556.42" y="1010.78" width="133.85" height="107.98"></rect><rect class="cls-8" x="5395.38" y="1136.75" width="294.89" height="107.98"></rect><rect class="cls-8" x="3939.42" y="1877.41" width="294.89" height="107.98"></rect><rect class="cls-8" x="3781.44" y="2003.38" width="294.89" height="107.98"></rect><rect class="cls-8" x="5237.4" y="1262.73" width="294.89" height="107.98"></rect><rect class="cls-8" x="5395.38" y="884.81" width="294.89" height="107.98"></rect><rect class="cls-8" x="5395.38" y="1388.7" width="294.89" height="107.98"></rect><rect class="cls-8" x="5079.42" y="1136.75" width="294.89" height="107.98"></rect><rect class="cls-8" x="3468.56" y="2003.38" width="294.89" height="107.98"></rect><rect class="cls-8" x="3626.53" y="1877.41" width="294.89" height="107.98"></rect><rect class="cls-8" x="3626.53" y="2129.35" width="294.89" height="107.98"></rect><rect class="cls-8" x="5237.4" y="1010.78" width="294.89" height="107.98"></rect><path class="cls-10" d="M2915.87,449.9h-899.81c-19.8,0-35.99,16.2-35.99,35.99v41.99c0,19.8,16.2,35.99,35.99,35.99h23.99v-23.29c0-18.53,15.16-33.7,33.7-33.7h784.42c18.53,0,33.7,15.16,33.7,33.7v23.29h23.99c19.8,0,35.99-16.2,35.99-35.99v-41.99c0-19.8-16.2-35.99-35.99-35.99Z"></path><rect class="cls-4" x="2052.06" y="521.89" width="827.82" height="41.99" rx="20.16" ry="20.16"></rect><rect class="cls-10" x="2040.06" y="143.97" width="12" height="328.43"></rect><rect class="cls-10" x="2879.88" y="143.97" width="12" height="328.43"></rect><rect class="cls-14" x="1368.2" y="1012.41" width="292.04" height="386.92" rx="118.29" ry="118.29"></rect><rect class="cls-9" x="1339.31" y="1230.61" width="349.83" height="16.5" rx="7.95" ry="7.95"></rect><rect class="cls-9" x="1339.31" y="1164.62" width="349.83" height="16.5" rx="7.95" ry="7.95"></rect><rect class="cls-15" x="1658.9" y="1406.56" width="49.99" height="361.44" transform="translate(3271.17 -96.61) rotate(90)"></rect><path class="cls-15" d="M2046.32,1424.32v119.94c0,9.96-8.07,18.03-18.03,18.03h-293.41v49.99h311.45c27.61,0,49.99-22.38,49.99-49.99h0v-137.97h-49.99Z"></path><g><circle class="cls-17" cx="2071.32" cy="1385.81" r="64.47" transform="translate(-373.24 1870.54) rotate(-45)"></circle><circle class="cls-4" cx="2071.32" cy="1385.81" r="49.85" transform="translate(382.24 3218.25) rotate(-81.12)"></circle><circle class="cls-12" cx="2071.32" cy="1385.81" r="9.33" transform="translate(366.86 3203.95) rotate(-80.63)"></circle><path class="cls-12" d="M2094.55,1359.04l-26.23,20.98c-1.15,.92-1.31,2.6-.36,3.72l5.65,6.66c1.08,1.28,3.07,1.21,4.08-.13l20.58-27.64c1.82-2.45-1.33-5.5-3.72-3.59Z"></path></g><rect class="cls-15" x="1905.38" y="1430.63" width="38.99" height="15.97" transform="translate(486.26 3363.5) rotate(-90)"></rect><path class="cls-15" d="M1860.45,1447.45c0,.44-.04,.87-.04,1.31v36.98c0,31.3,16.3,56.91,36.23,56.91h0c19.92,0,36.23-25.61,36.23-56.91v-36.98c0-.44-.03-.87-.04-1.31h-72.38Z"></path><rect class="cls-15" x="1877.14" y="1544.36" width="38.99" height="15.97" transform="translate(344.29 3448.98) rotate(-90)"></rect><path class="cls-15" d="M967.57,1698.49v-143.33h-49.99v161.29h0c0,27.61,22.38,49.99,49.99,49.99h1658.4v-49.99H985.52c-9.92,0-17.96-8.04-17.96-17.96Z"></path><rect class="cls-15" x="917.58" y="2167.53" width="49.99" height="137.97" transform="translate(1885.14 4473.03) rotate(180)"></rect><rect class="cls-15" x="1299.22" y="2167.53" width="30.19" height="137.97" transform="translate(2628.63 4473.03) rotate(180)"></rect><g><circle class="cls-17" cx="942.57" cy="2129.03" r="64.47" transform="translate(-1346.06 2557.23) rotate(-76.72)"></circle><circle class="cls-4" cx="942.57" cy="2129.03" r="49.85" transform="translate(-1346.06 2557.23) rotate(-76.72)"></circle><circle class="cls-12" cx="942.57" cy="2129.03" r="9.33" transform="translate(-1346.06 2557.23) rotate(-76.72)"></circle><circle class="cls-12" cx="942.57" cy="2129.03" r="9.33" transform="translate(-1229.38 1290.08) rotate(-45)"></circle><path class="cls-12" d="M919.34,2102.26l26.23,20.98c1.15,.92,1.31,2.6,.36,3.72l-5.65,6.66c-1.08,1.28-3.07,1.21-4.08-.13l-20.58-27.64c-1.82-2.45,1.33-5.5,3.72-3.59Z"></path></g><g><path class="cls-2" d="M445.9,1537.17c0,9.94,8.06,18,18,18h598.37c9.94,0,18-8.06,18-18V833.82H445.9v703.35Z"></path><path class="cls-10" d="M1062.27,790.33H463.9c-9.94,0-18,8.06-18,18v25.49h634.36v-25.49c0-9.94-8.06-18-18-18Z"></path></g><path class="cls-10" d="M463.9,1555.16h598.37c9.94,0,18-8.06,18-18v-25.49H445.9v25.49c0,9.94,8.06,18,18,18Z"></path><g><circle class="cls-17" cx="583.85" cy="972.54" r="64.47"></circle><circle class="cls-4" cx="583.85" cy="972.54" r="49.85"></circle><circle class="cls-12" cx="583.85" cy="972.54" r="9.33"></circle><circle class="cls-12" cx="583.85" cy="972.54" r="9.33"></circle><path class="cls-12" d="M560.62,945.77l26.23,20.98c1.15,.92,1.31,2.6,.36,3.72l-5.65,6.66c-1.08,1.28-3.07,1.21-4.08-.13l-20.58-27.64c-1.82-2.45,1.33-5.5,3.72-3.59Z"></path></g><circle class="cls-3" cx="507.79" cy="1471.64" r="9.33" transform="translate(-891.88 790.1) rotate(-45)"></circle><path class="cls-18" d="M544.14,1464.81c-3.77-3.51-9.68-3.3-13.19,.47s-3.3,9.68,.47,13.19c3.77,3.51,9.68,3.3,13.19-.47,3.51-3.77,3.3-9.68-.47-13.19Z"></path><circle class="cls-19" cx="567.78" cy="1471.64" r="9.33" transform="translate(-1009.12 1433.03) rotate(-67.5)"></circle><path class="cls-3" d="M1314.31,2162.16h0c0,8.34-6.76,15.1-15.1,15.1h-62.89c-8.34,0-15.1-6.76-15.1-15.1h0c0-8.34,6.76-15.1,15.1-15.1h62.89c8.34,0,15.1,6.76,15.1,15.1Z"></path><circle class="cls-10" cx="1314.31" cy="2162.16" r="25.49"></circle><rect class="cls-15" x="2078.22" y="1706.8" width="49.99" height="1247.39" transform="translate(4433.71 227.28) rotate(90)"></rect><rect class="cls-15" x="2554.97" y="1594.5" width="49.99" height="293.9" transform="translate(4321.41 -838.52) rotate(90)"></rect><g><rect class="cls-15" x="2474.96" y="1578.48" width="30.19" height="137.97" transform="translate(4980.12 3294.93) rotate(180)"></rect><path class="cls-3" d="M2583.14,1573.11h0c0,8.34-6.76,15.1-15.1,15.1h-62.89c-8.34,0-15.1-6.76-15.1-15.1h0c0-8.34,6.76-15.1,15.1-15.1h62.89c8.34,0,15.1,6.76,15.1,15.1Z"></path><circle class="cls-10" cx="2490.06" cy="1573.11" r="25.49"></circle></g><g><rect class="cls-3" x="2032.22" y="2261.79" width="141.98" height="141.98" rx="26.41" ry="26.41"></rect><rect class="cls-3" x="2059.87" y="2244.51" width="86.68" height="17.27"></rect><rect class="cls-6" x="2050.91" y="2213.13" width="104.62" height="31.39"></rect><circle class="cls-7" cx="2103.22" cy="2333.15" r="51.33" transform="translate(-658.71 3829.45) rotate(-76.41)"></circle><circle class="cls-2" cx="2103.22" cy="2333.15" r="23.22"></circle><rect class="cls-3" x="2145.79" y="2324.8" width="68.11" height="11.27" transform="translate(4510.28 150.59) rotate(90)"></rect><rect class="cls-3" x="1992.53" y="2324.8" width="68.11" height="11.27" transform="translate(4357.02 303.85) rotate(90)"></rect></g><g><path class="cls-4" d="M2726.91,2545.34c0,.61,.25,1.11,.56,1.11h768.32c.31,0,.56-.49,.56-1.11V833.94h-769.45v1711.4Z"></path><path class="cls-10" d="M3111.63,712.35v121.6h384.72v-25.49c0-9.94-194.7-96.1-384.72-96.1Z"></path><path class="cls-10" d="M3111.63,712.35v121.6h-384.72v-25.49c0-9.94,194.7-96.1,384.72-96.1Z"></path><path class="cls-10" d="M2726.91,859.36s.25,.02,.56,.02h768.32c.31,0,.56,0,.56-.02v-25.42h-769.45v25.42Z"></path><path class="cls-10" d="M2726.91,2546.36s.25,.09,.56,.09h768.32c.31,0,.56-.04,.56-.09v-137.88h-769.45v137.88Z"></path><g><circle class="cls-17" cx="3111.63" cy="1062.05" r="64.47" transform="translate(160.4 2511.32) rotate(-45)"></circle><circle class="cls-4" cx="3111.63" cy="1062.05" r="49.85" transform="translate(-160.77 743.32) rotate(-13.28)"></circle><circle class="cls-12" cx="3111.63" cy="1062.05" r="9.33" transform="translate(1564.87 3963.38) rotate(-80.78)"></circle><path class="cls-12" d="M3134.87,1035.28l-26.23,20.98c-1.15,.92-1.31,2.6-.36,3.72l5.65,6.66c1.08,1.28,3.07,1.21,4.08-.13l20.58-27.64c1.82-2.45-1.33-5.5-3.72-3.59Z"></path></g><g><circle class="cls-16" cx="3111.63" cy="2147.06" r="119.17" transform="translate(-606.83 2829.12) rotate(-45)"></circle><circle class="cls-8" cx="3111.63" cy="2147.06" r="92.14" transform="translate(-606.83 2829.12) rotate(-45)"></circle></g><circle class="cls-3" cx="3081.64" cy="1191.95" r="9.33"></circle><path class="cls-18" d="M3117.99,1185.12c-3.77-3.51-9.68-3.3-13.19,.47-3.51,3.77-3.3,9.68,.47,13.19s9.68,3.3,13.19-.47c3.51-3.77,3.3-9.68-.47-13.19Z"></path><circle class="cls-19" cx="3141.63" cy="1191.95" r="9.33"></circle><path class="cls-1" d="M3440.76,2407.48c0,.55,.02,1,.04,1h55.52s.04-.45,.04-1V859.38h-55.6v1548.1Z"></path></g><path class="cls-11" d="M1023.28,1511.24c0,.24,.02,.44,.04,.44h55.52s.04-.2,.04-.44V833.82h-55.6v677.42Z"></path><rect class="cls-10" x="750.09" y="921.68" width="296.19" height="16.5" rx="7.31" ry="7.31"></rect><rect class="cls-10" x="750.09" y="964.29" width="296.19" height="16.5" rx="7.31" ry="7.31"></rect><rect class="cls-10" x="750.09" y="1006.91" width="296.19" height="16.5" rx="7.31" ry="7.31"></rect><rect class="cls-10" x="750.09" y="1159.5" width="296.19" height="16.5" rx="7.31" ry="7.31"></rect><rect class="cls-10" x="750.09" y="1202.11" width="296.19" height="16.5" rx="7.31" ry="7.31"></rect><rect class="cls-10" x="750.09" y="1244.73" width="296.19" height="16.5" rx="7.31" ry="7.31"></rect><rect class="cls-10" x="750.09" y="1287.35" width="296.19" height="16.5" rx="7.31" ry="7.31"></rect><rect class="cls-10" x="750.09" y="1329.96" width="296.19" height="16.5" rx="7.31" ry="7.31"></rect><rect class="cls-15" x="4203.9" y="1008.91" width="49.99" height="1465.07" transform="translate(5970.34 -2487.45) rotate(90)"></rect><rect class="cls-15" x="4506.83" y="1294.96" width="49.99" height="2070.94" transform="translate(6862.26 -2201.39) rotate(90)"></rect><g><rect class="cls-15" x="4004.63" y="1580.38" width="30.19" height="137.97" transform="translate(8039.46 3298.72) rotate(180)"></rect><path class="cls-3" d="M4112.81,1575h0c0,8.34-6.76,15.1-15.1,15.1h-62.89c-8.34,0-15.1-6.76-15.1-15.1h0c0-8.34,6.76-15.1,15.1-15.1h62.89c8.34,0,15.1,6.76,15.1,15.1Z"></path><circle class="cls-10" cx="4019.73" cy="1575" r="25.49"></circle></g><g><rect class="cls-15" x="4004.63" y="2167.47" width="30.19" height="137.97" transform="translate(8039.46 4472.91) rotate(180)"></rect><rect class="cls-3" x="4051.17" y="2115.56" width="30.19" height="93.08" rx="15.1" ry="15.1" transform="translate(1904.17 6228.36) rotate(-90)"></rect><circle class="cls-10" cx="4019.73" cy="2162.09" r="25.49" transform="translate(991.93 5577.55) rotate(-76.72)"></circle></g><rect class="cls-15" x="4554.34" y="1437.51" width="148.32" height="605.87" transform="translate(6368.94 -2888.05) rotate(90)"></rect><rect class="cls-15" x="5160.21" y="2027.56" width="148.32" height="605.87" transform="translate(7564.86 -2903.87) rotate(90)"></rect><rect class="cls-15" x="4403.55" y="212.95" width="49.99" height="1453.33" transform="translate(8857.08 1879.24) rotate(180)"></rect><rect class="cls-15" x="4503.53" y="212.95" width="49.99" height="1453.33" transform="translate(9057.04 1879.24) rotate(180)"></rect><rect class="cls-15" x="4603.5" y="212.95" width="49.99" height="1453.33" transform="translate(9257 1879.24) rotate(180)"></rect><rect class="cls-15" x="4703.48" y="212.95" width="49.99" height="1453.33" transform="translate(9456.95 1879.24) rotate(180)"></rect><rect class="cls-15" x="4803.46" y="212.95" width="49.99" height="1453.33" transform="translate(9656.91 1879.24) rotate(180)"></rect><rect class="cls-15" x="5018.98" y="212.95" width="49.99" height="2043.38" transform="translate(10087.94 2469.29) rotate(180)"></rect><rect class="cls-15" x="5118.95" y="212.95" width="49.99" height="2043.38" transform="translate(10287.9 2469.29) rotate(180)"></rect><rect class="cls-15" x="5218.93" y="212.95" width="49.99" height="2043.38" transform="translate(10487.86 2469.29) rotate(180)"></rect><rect class="cls-15" x="5318.91" y="212.95" width="49.99" height="2043.38" transform="translate(10687.81 2469.29) rotate(180)"></rect><rect class="cls-15" x="5418.89" y="212.95" width="49.99" height="2043.38" transform="translate(10887.77 2469.29) rotate(180)"></rect><path class="cls-15" d="M1489.23,1421.07v884.43H626.85c-9.94,0-18.01-8.06-18.01-18.01v-732.33h-49.99v750.34c0,27.61,22.38,49.99,49.99,49.99h930.37v-934.42h-49.99Z"></path><polygon class="cls-10" points="576.21 1207.13 553.86 1252.03 578.45 1252.03 571.74 1267.31 553.86 1267.31 571.56 1298.82 610.86 1268.05 591.3 1268.05 613.84 1237.69 586.83 1237.69 605.83 1207.13 576.21 1207.13"></polygon></g></svg>